{"title":"Formula 1 2013 Bahrain Grand Prix - Full Race - BBC","uid":8395586,"size":1238672744,"categoryP":"video","categoryS":"tv_shows","magnet":"?xt=urn:btih:7cbc4c86079b9a2f319602aa64da15712f52623e&amp;dn=Formula+1+2013+Bahrain+Grand+Prix+-+Full+Race+-+BBC&amp;tr=udp%3A%2F%2Ftracker.openbittorrent.com%3A80&amp;tr=udp%3A%2F%2Fopen.demonii.com%3A1337&amp;tr=udp%3A%2F%2Ftracker.coppersurfer.tk%3A6969&amp;tr=udp%3A%2F%2Fexodus.desync.com%3A6969","seeders":1,"leechers":0,"uploader":"IAMH67","files":5,"time":1366564067,"description":"MOTORING: F1: Bahrain Grand Prix - Sunday 21st April 2013\n\nRun Time: 2 hours and 5 minutes long [624x336 Resolution]\n\nCREDIT : HANNIBAL [recorded via PDTV]\n\n\nONLY THE RACE. PRE/POST EXTENDED SHOWS NOT INCLUDED.\n \nAll the action from the main race of the Bahrain Formula 1 Grand Prix from the Bahrain International Circuit. Presented by David Coulthard and his team.\n\nTechnical Infromation : \n\nVideo\n\nID                             : 0\nFormat                         : MPEG-4 Visual\nFormat profile                 : Advanced Simple@L5\nFormat settings, BVOP          : 2\nFormat settings, QPel          : No\nFormat settings, GMC           : No warppoints\nFormat settings, Matrix        : Default (H.263)\nMuxing mode                    : Packed bitstream\nCodec ID                       : XVID\nCodec ID/Hint                  : XviD\nDuration                       : 2h 3mn\nBit rate                       : 1 150 Kbps\nWidth                          : 624 pixels\nHeight                         : 336 pixels\nDisplay aspect ratio           : 1.85:1\nFrame rate                     : 25.000 fps\nColor space                    : YUV\nChroma subsampling             : 4:2:0\nBit depth                      : 8 bits\nScan type                      : Progressive\nCompression mode               : Lossy\nBits/(Pixel*Frame)             : 0.219\nStream size                    : 1 014 MiB (86%)\nWriting library                : XviD 1.2.1 (UTC 2008-12-04)\n\nAudio\n\nID                             : 1\nFormat                         : MPEG Audio\nFormat version                 : Version 1\nFormat profile                 : Layer 3\nMode                           : Joint stereo\nMode extension                 : MS Stereo\nCodec ID                       : 55\nCodec ID/Hint                  : MP3\nDuration                       : 2h 3mn\nBit rate mode                  : Constant\nBit rate                       : 128 Kbps\nChannel(s)                     : 2 channels\nSampling rate                  : 48.0 KHz\nCompression mode               : Lossy\nStream size                    : 113 MiB (10%)\nAlignment                      : Aligned on interleaves\n\n\nScreens : \n &lt;a href=&quot;\nhttp://i.imgur.com/w8ko78i.jpg&quot; rel=&quot;nofollow&quot; target=&quot;_NEW&quot;&gt;\nhttp://i.imgur.com/w8ko78i.jpg&lt;/a&gt;\n &lt;a href=&quot;\nhttp://i.imgur.com/n1CjTHZ.jpg&quot; rel=&quot;nofollow&quot; target=&quot;_NEW&quot;&gt;\nhttp://i.imgur.com/n1CjTHZ.jpg&lt;/a&gt;\n &lt;a href=&quot;\nhttp://i.imgur.com/Y3FevtE.jpg&quot; rel=&quot;nofollow&quot; target=&quot;_NEW&quot;&gt;\nhttp://i.imgur.com/Y3FevtE.jpg&lt;/a&gt;\n\n\n","torrent":{"xt":"urn:btih:7cbc4c86079b9a2f319602aa64da15712f52623e","amp;dn":"Formula+1+2013+Bahrain+Grand+Prix+-+Full+Race+-+BBC","amp;tr":["udp%3A%2F%2Ftracker.openbittorrent.com%3A80","udp%3A%2F%2Fopen.demonii.com%3A1337","udp%3A%2F%2Ftracker.coppersurfer.tk%3A6969","udp%3A%2F%2Fexodus.desync.com%3A6969"],"infoHash":"7cbc4c86079b9a2f319602aa64da15712f52623e","infoHashBuffer":{"type":"Buffer","data":[124,188,76,134,7,155,154,47,49,150,2,170,100,218,21,113,47,82,98,62]},"announce":[],"urlList":[]}}